<svg xmlns="http://www.w3.org/2000/svg" viewBox="0 0 640 480">
  <defs>
    <clipPath id="a">
      <path fill-opacity=".7" d="M0 0h640v480H0z"/>
    </clipPath>
  </defs>
  <g fill-rule="evenodd" stroke-width="1pt" clip-path="url(#a)">
    <path fill="#0d5eaf" d="M0 0h640v53.3H0z"/>
    <path fill="#fff" d="M0 53.3h640v53.4H0z"/>
    <path fill="#0d5eaf" d="M0 106.7h640V160H0z"/>
    <path fill="#fff" d="M0 160h640v53.3H0z"/>
    <path fill="#0d5eaf" d="M0 213.3h640v53.4H0z"/>
    <path fill="#fff" d="M0 266.7h640V320H0z"/>
    <path fill="#0d5eaf" d="M0 320h640v53.3H0z"/>
    <path fill="#fff" d="M0 373.3h640v53.4H0z"/>
    <path fill="#0d5eaf" d="M0 426.7h640V480H0z"/>
    <path fill="#0d5eaf" d="M0 0h266.7v266.7H0z"/>
    <path fill="#fff" d="M106.7 0h53.3v266.7h-53.3zM0 106.7h266.7V160H0z"/>
  </g>
</svg>
